D:\school\WTK\thesis\model\3dpredictsim\Results\batch_windlass\Pog_s1_tmt_bCst_d00_k800_WL20_ig24_act_TTC_GRF.mot
nRows=10
nColumns=19

name D:\school\WTK\thesis\model\3dpredictsim\Results\batch_windlass\Pog_s1_tmt_bCst_d00_k800_WL20_ig24_act_TTC_GRF.mot
datacolumns 19
datarows 10
range 0.6594327582 0.7781306546
endheader
time 	ground_force_vx	ground_force_vy	ground_force_vz	ground_force_px	ground_force_py	ground_force_pz	1_ground_force_vx	1_ground_force_vy	1_ground_force_vz	1_ground_force_px	1_ground_force_py	1_ground_force_pz	ground_torque_x	ground_torque_y	ground_torque_z	1_ground_torque_x	1_ground_torque_y	1_ground_torque_z
        0.6594327582	       61.5764039924	      276.0028247383	       10.3025376091	        0.4365108414	        0.0000000000	        0.0232589789	      -96.3252633990	       82.7195914943	      -22.5075237100	        1.0221911251	        0.0000000000	       -0.0536094866	        0.0000000000	        0.0000000000	        0.0000000000	        0.0000000000	        0.0000000000	        0.0000000000	
        0.6726214133	       45.3744998794	      221.7598605936	       16.9895043829	        0.4418153055	        0.0000000000	        0.0209339022	     -110.8640023102	      257.5153828853	      -23.9580426916	        1.0294935980	        0.0000000000	       -0.0519486663	        0.0000000000	        0.0000000000	        0.0000000000	        0.0000000000	        0.0000000000	        0.0000000000	
        0.6858100685	       42.9843149767	      176.7130718979	       13.4795384094	        0.4421194904	        0.0000000000	        0.0207720325	      -89.0243221389	      534.1079796222	        7.9402635230	        1.0338296111	        0.0000000000	       -0.0514284674	        0.0000000000	        0.0000000000	        0.0000000000	        0.0000000000	        0.0000000000	        0.0000000000	
        0.6989987237	       29.0672621222	      113.0170097576	       13.3244802777	        0.4421709590	        0.0000000000	        0.0210464011	     -130.0767082355	      795.2973924478	       23.2599426413	        1.0439343482	        0.0000000000	       -0.0531123437	        0.0000000000	        0.0000000000	        0.0000000000	        0.0000000000	        0.0000000000	        0.0000000000	
        0.7121873788	        3.6019676684	       38.7543400608	        7.2014433655	        0.4407794573	        0.0000000000	        0.0213209447	     -168.8937589154	      928.9654284274	       28.2179440319	        1.0527654571	        0.0000000000	       -0.0547228157	        0.0000000000	        0.0000000000	        0.0000000000	        0.0000000000	        0.0000000000	        0.0000000000	
        0.7253760340	        0.8208642672	       -0.7900270698	        0.0751887332	        0.0000000000	        0.0000000000	        0.0000000000	     -169.5750448932	      930.1239822291	       27.5687220142	        1.0592250621	        0.0000000000	       -0.0557057205	        0.0000000000	        0.0000000000	        0.0000000000	        0.0000000000	        0.0000000000	        0.0000000000	
        0.7385646891	       -3.5554135430	        2.7394758801	       -0.5000944864	        0.0000000000	        0.0000000000	        0.0000000000	     -159.1845536648	      880.7631844936	       23.0824878371	        1.0647245288	        0.0000000000	       -0.0563139843	        0.0000000000	        0.0000000000	        0.0000000000	        0.0000000000	        0.0000000000	        0.0000000000	
        0.7517533443	       -2.4185229093	        1.6275004037	       -0.3223495880	        0.0000000000	        0.0000000000	        0.0000000000	     -145.9159040794	      835.1844686566	       17.9963174220	        1.0697784853	        0.0000000000	       -0.0562161344	        0.0000000000	        0.0000000000	        0.0000000000	        0.0000000000	        0.0000000000	        0.0000000000	
        0.7649419995	       -0.4001598608	        0.2458410384	       -0.0463988259	        0.0000000000	        0.0000000000	        0.0000000000	     -126.4307247958	      793.9356247326	       16.7951910137	        1.0753515614	        0.0000000000	       -0.0556859776	        0.0000000000	        0.0000000000	        0.0000000000	        0.0000000000	        0.0000000000	        0.0000000000	
        0.7781306546	       -0.1559843518	        0.0896861313	       -0.0152315044	        0.0000000000	        0.0000000000	        0.0000000000	     -109.1165744584	      747.0158770220	       16.1000608606	        1.0814467381	        0.0000000000	       -0.0549889306	        0.0000000000	        0.0000000000	        0.0000000000	        0.0000000000	        0.0000000000	        0.0000000000	
